<?xml version="1.0" encoding="UTF-8" standalone="no"?>
<svg
   xmlns:dc="http://purl.org/dc/elements/1.1/"
   xmlns:cc="http://creativecommons.org/ns#"
   xmlns:rdf="http://www.w3.org/1999/02/22-rdf-syntax-ns#"
   xmlns:svg="http://www.w3.org/2000/svg"
   xmlns="http://www.w3.org/2000/svg"
   xmlns:sodipodi="http://sodipodi.sourceforge.net/DTD/sodipodi-0.dtd"
   xmlns:inkscape="http://www.inkscape.org/namespaces/inkscape"
   version="1.1"
   id="svg2"
   viewBox="0 0 1000 1000"
   height="297mm"
   width="210mm"
   inkscape:version="0.91 r13725"
   sodipodi:docname="drawing.svg">
  <sodipodi:namedview
     pagecolor="#ffffff"
     bordercolor="#666666"
     borderopacity="1"
     objecttolerance="10"
     gridtolerance="10"
     guidetolerance="10"
     inkscape:pageopacity="0"
     inkscape:pageshadow="2"
     inkscape:window-width="1366"
     inkscape:window-height="689"
     id="namedview15"
     showgrid="false"
     inkscape:zoom="0.31714784"
     inkscape:cx="-263.06751"
     inkscape:cy="712.7496"
     inkscape:window-x="0"
     inkscape:window-y="30"
     inkscape:window-maximized="1"
     inkscape:current-layer="svg2" />
  <defs
     id="defs4" />
  <metadata
     id="metadata7">
    <rdf:RDF>
      <cc:Work
         rdf:about="">
        <dc:format>image/svg+xml</dc:format>
        <dc:type
           rdf:resource="http://purl.org/dc/dcmitype/StillImage" />
        <dc:title />
      </cc:Work>
    </rdf:RDF>
  </metadata>
  <g
     id="g4234"
     transform="translate(754.8787,408.02106)"
     style="opacity:1">
    <circle
       r="500"
       cy="-616.20923"
       cx="-754.28571"
       id="path4207-7"
       style="opacity:1;fill:#ffff00;fill-opacity:1;stroke:none;stroke-width:1;stroke-linecap:round;stroke-linejoin:round;stroke-miterlimit:4;stroke-dasharray:none;stroke-dashoffset:0;stroke-opacity:1" />
    <path
       inkscape:connector-curvature="0"
       id="path4160"
       d="m -418.35909,-1024.6208 c -1.32429,0 -2.82025,0.02 -4.51563,0.043 -12.12504,0.1613 -17.7832,1.3543 -37.86133,7.9903 -55.39559,18.3086 -121.06989,53.84259 -133.79489,72.39256 -2.6837,3.91215 -17.2362,27.22284 -32.3379,51.80078 -30.8835,50.26283 -48.2915,76.54055 -54.6953,82.55664 -6.4492,6.05865 -8.456,2.83526 -8.0996,-13.01953 0.5925,-26.35693 14.7306,-66.10445 30.5976,-86.02734 l 7.0918,-8.90625 -24.1094,12.07031 c -52.0572,26.06139 -103.2993,57.84861 -133.8906,83.06055 l -15.3476,12.65039 -1.9161,12.34765 c -1.0538,6.79154 -3.4494,24.86864 -5.3261,40.17188 -5.2018,42.4188 -8.6778,64.03012 -10.4746,65.14062 -4.3789,2.70631 -5.8842,-2.59501 -12.1465,-42.8164 -4.1793,-26.84277 -6.7511,-35.94602 -9.3399,-33.04493 -0.7095,0.79518 -6.9506,8.65584 -13.8691,17.4668 -120.2763,153.17726 -188.06266,331.63284 -154.12706,405.75781 l 4.1543,9.07422 0.5528,0 23.4727,-35.58789 c 61.54676,-93.30081 123.85576,-174.16038 201.92386,-262.04687 28.5771,-32.17121 121.5315,-124.63718 153.6582,-152.85352 49.4824,-43.45972 108.1628,-90.10233 149.23824,-118.61914 15.29375,-10.61777 12.76537,-8.09416 -10.33594,10.31641 -63.106,50.29231 -148.4767,133.97438 -219.1152,214.7832 -73.5927,84.18833 -152.5286,188.09414 -221.334,291.34961 -37.1185,55.7032 -44.4971,67.59382 -43.2285,69.64648 1.5725,2.54439 24.779,0.72684 46.7187,-3.65429 54.7081,-10.92465 119.4536,-43.23041 178.0508,-88.84375 20.1786,-15.70749 55.9258,-47.19978 55.9258,-49.27149 0,-2.42604 -8.3997,-7.62582 -25.3321,-15.68945 -24.2459,-11.5465 -26.863,-16.48524 -12.0703,-22.76953 7.757,-3.29536 15.6564,-5.39168 57.6368,-15.3086 33.3145,-7.86977 39.133,-10.55009 49.2636,-22.68554 22.952,-27.4944 97.4453,-132.01314 97.4453,-136.72266 0,-1.81604 -17.4333,-1.07994 -44.2421,1.8711 -20.6585,2.27402 -26.9809,2.47225 -28.5586,0.89453 -4.4828,-4.48278 1.9679,-8.58269 76.1738,-48.41211 40.35093,-21.65804 34.7672,-15.19603 64.4785,-74.66211 34.46725,-68.98487 57.18725,-126.53519 68.73047,-174.10157 4.53887,-18.70347 6.12475,-46.48747 2.98437,-52.27537 -1.90402,-3.5096 -2.75923,-4.095 -12.02929,-4.0664 z m -313.61915,329.48435 c -163.9505,163.05854 -267.0061,320.61466 -374.75396,505.91797 l 38.3281,-19.58984 c 93.03446,-183.55767 218.88926,-322.79897 336.42586,-486.32813 z"
       style="fill:#000000" />
  </g>
</svg>
