<?xml version="1.0" encoding="UTF-8" standalone="no"?>
<svg
   xmlns:dc="http://purl.org/dc/elements/1.1/"
   xmlns:cc="http://creativecommons.org/ns#"
   xmlns:rdf="http://www.w3.org/1999/02/22-rdf-syntax-ns#"
   xmlns:svg="http://www.w3.org/2000/svg"
   xmlns="http://www.w3.org/2000/svg"
   xmlns:sodipodi="http://sodipodi.sourceforge.net/DTD/sodipodi-0.dtd"
   xmlns:inkscape="http://www.inkscape.org/namespaces/inkscape"
   version="1.1"
   id="svg2"
   viewBox="0 0 1000 1000"
   height="297mm"
   width="210mm"
   inkscape:version="0.91 r13725"
   sodipodi:docname="drawing.svg">
  <sodipodi:namedview
     pagecolor="#ffffff"
     bordercolor="#666666"
     borderopacity="1"
     objecttolerance="10"
     gridtolerance="10"
     guidetolerance="10"
     inkscape:pageopacity="0"
     inkscape:pageshadow="2"
     inkscape:window-width="1366"
     inkscape:window-height="689"
     id="namedview15"
     showgrid="false"
     inkscape:zoom="0.31714784"
     inkscape:cx="-263.06751"
     inkscape:cy="712.7496"
     inkscape:window-x="0"
     inkscape:window-y="30"
     inkscape:window-maximized="1"
     inkscape:current-layer="svg2" />
  <defs
     id="defs4" />
  <metadata
     id="metadata7">
    <rdf:RDF>
      <cc:Work
         rdf:about="">
        <dc:format>image/svg+xml</dc:format>
        <dc:type
           rdf:resource="http://purl.org/dc/dcmitype/StillImage" />
        <dc:title />
      </cc:Work>
    </rdf:RDF>
  </metadata>
  <g
     id="g4230"
     transform="translate(806.62311,-797.76003)"
     style="opacity:1">
    <circle
       r="500"
       cy="589.50507"
       cx="-805.71429"
       id="path4207-5"
       style="opacity:1;fill:#ffff00;fill-opacity:1;stroke:none;stroke-width:1;stroke-linecap:round;stroke-linejoin:round;stroke-miterlimit:4;stroke-dasharray:none;stroke-dashoffset:0;stroke-opacity:1" />
    <path
       inkscape:connector-curvature="0"
       id="path4147"
       d="m -1158.8277,955.03458 -32.7449,-32.75617 9.2355,-9.23545 9.2354,-9.23545 -7.9677,-8.01477 -7.9678,-8.01477 17.4722,-17.4936 c 9.6097,-9.62149 17.917,-17.49361 18.4608,-17.49361 0.5437,0 4.3795,3.37108 8.524,7.49128 l 7.5355,7.49128 40.4785,-40.48773 40.4784,-40.48773 -15.7413,-15.76445 -15.7413,-15.76444 17.9996,-17.97883 17.9997,-17.97882 18.3664,18.3463 18.3664,18.34631 36.96791,-40.35659 c 20.33235,-22.19612 50.9773,-55.65657 68.09991,-74.35657 l 31.13202,-34 -3.21649,-3.10687 c -1.76906,-1.70877 -64.07898,-58.77663 -138.46645,-126.81747 -74.3875,-68.04083 -135.25,-123.89863 -135.25,-124.12844 0,-0.22981 -8.1256,-29.72383 -18.0569,-65.54226 -9.9314,-35.81843 -17.8072,-65.37421 -17.5019,-65.67951 0.6368,-0.63681 127.911,34.39188 131.2747,36.12971 1.2187,0.62966 58.0509,61.89483 126.29383,136.14483 68.2429,74.25 124.45488,135.13222 124.91552,135.29381 0.46064,0.16159 56.96121,-61.03842 125.55682,-136.00001 l 124.7193,-136.2938 65.96647,-18.34949 c 36.28156,-10.09223 66.17689,-18.13907 66.43408,-17.88188 0.25719,0.25719 -7.75864,30.09516 -17.81296,66.3066 l -18.2806,65.83898 -137.67811,126.5429 c -75.72296,69.5986 -137.58148,126.93552 -137.46336,127.4154 0.11811,0.47987 30.79217,34.11735 68.16458,74.74995 l 67.94984,73.87744 19.25893,-19.23993 19.25893,-19.23993 18.00025,17.97941 18.00025,17.97941 -16.49681,16.51824 -16.4968,16.51825 40.48821,40.47895 40.4882,40.47895 8.5146,-8.47037 8.5146,-8.47036 17.99579,17.97496 17.99578,17.97496 -8.49582,8.49582 -8.49583,8.49583 8.97624,9.01372 8.97623,9.01371 -32.68154,32.78082 -32.68155,32.78081 -9.06367,-9.02598 -9.06367,-9.02598 -7.99583,7.99583 -7.99583,7.99582 -17.97404,-17.99487 -17.97405,-17.99488 7.72432,-7.7699 7.72433,-7.76989 -40.48754,-40.47828 -40.48754,-40.47829 -15.26547,15.24164 c -8.39601,8.3829 -15.71501,15.24163 -16.26445,15.24163 -0.54945,0 -8.86448,-7.87513 -18.47785,-17.50029 l -17.47886,-17.50029 18.48958,-18.55075 18.48957,-18.55076 -2.6688,-2.33114 c -2.59408,-2.26588 -28.4824,-25.93242 -109.75831,-100.33867 -38.57687,-35.31624 -39.47271,-36.05832 -41.54124,-34.41135 -1.16277,0.92579 -35.31699,32.24507 -75.89828,69.59841 l -73.78415,67.91515 19.31537,19.33445 19.31537,19.33444 -17.97941,18.00025 -17.97941,18.00025 -16.51824,-16.49681 -16.51825,-16.4968 -40.47892,40.48821 -40.4789,40.4882 8.2314,8.27439 8.2314,8.27438 -17.989,17.96811 -17.9889,17.9681 -8.2767,-8.23372 -8.2767,-8.23372 -8.9583,8.99998 c -4.9271,4.94999 -9.1952,8.99998 -9.4848,8.99998 -0.2896,0 -15.2618,-14.74028 -33.2715,-32.75618 z"
       style="fill:#000000" />
  </g>
</svg>
