<svg id="svg-timeline" width="300" height="200"><rect id="background" x="0" y="0" width="2770" height="300"></rect><g id="graph" transform="translate(0, 0)"><g id="timeline" transform="translate(0, 40)"><g id="timeline-icon-line" stroke-width="0.5" stroke-dasharray="2, 2"><line x1="208" x2="208" y1="-20" y2="96"></line><line x1="768" x2="768" y1="-20" y2="56"></line><line x1="888" x2="888" y1="-20" y2="96"></line><line x1="1048" x2="1048" y1="-20" y2="56"></line><line x1="1078" x2="1078" y1="-20" y2="136"></line><line x1="1138" x2="1138" y1="-20" y2="136"></line><line x1="1178" x2="1178" y1="-20" y2="96"></line><line x1="1198" x2="1198" y1="-20" y2="56"></line><line x1="1808" x2="1808" y1="-20" y2="96"></line><line x1="2688" x2="2688" y1="-20" y2="96"></line><line x1="2748" x2="2748" y1="-20" y2="136"></line></g><g id="timeline-rect"><rect x="180" width="250" y="80" height="16"></rect><rect x="700" width="70" y="40" height="16"></rect><rect x="600" width="290" y="80" height="16"></rect><rect x="1030" width="20" y="40" height="16"></rect><rect x="780" width="300" y="120" height="16"></rect><rect x="1130" width="10" y="120" height="16"></rect><rect x="1170" width="10" y="80" height="16"></rect><rect x="1180" width="20" y="40" height="16"></rect><rect x="1600" width="210" y="80" height="16"></rect><rect x="2680" width="10" y="80" height="16"></rect><rect x="2630" width="120" y="120" height="16"></rect></g><g id="timeline-icon-bg" class="icon"><circle cx="208" cy="-20" r="10" opacity="0.5"></circle><circle cx="768" cy="-20" r="10" opacity="0.5"></circle><circle cx="888" cy="-20" r="10" opacity="0.5"></circle><circle cx="1048" cy="-20" r="10" opacity="0.5"></circle><circle cx="1078" cy="-20" r="10" opacity="0.5"></circle><circle cx="1138" cy="-20" r="10" opacity="0.5"></circle><circle cx="1178" cy="-20" r="10" opacity="0.5"></circle><circle cx="1198" cy="-20" r="10" opacity="0.5"></circle><circle cx="1788" cy="-20" r="10" opacity="0.5"></circle><circle cx="1808" cy="-20" r="10" opacity="0.5"></circle><circle cx="2628" cy="-20" r="10" opacity="0.5"></circle><circle cx="2688" cy="-20" r="10" opacity="0.5"></circle><circle cx="2748" cy="-20" r="10" opacity="0.5"></circle></g><g id="timeline-icon" class="icon"><circle id="year-1561" class="click-icon" cx="208" cy="-20" r="8"></circle><circle id="year-1617" class="click-icon" cx="768" cy="-20" r="8"></circle><circle id="year-1629" class="click-icon" cx="888" cy="-20" r="8"></circle><circle id="year-1645" class="click-icon" cx="1048" cy="-20" r="8"></circle><circle id="year-1648" class="click-icon" cx="1078" cy="-20" r="8"></circle><circle id="year-1654" class="click-icon" cx="1138" cy="-20" r="8"></circle><circle id="year-1658" class="click-icon" cx="1178" cy="-20" r="8"></circle><circle id="year-1660" class="click-icon" cx="1198" cy="-20" r="8"></circle><circle id="year-1719" class="click-icon" cx="1788" cy="-20" r="8"></circle><circle id="year-1721" class="click-icon" cx="1808" cy="-20" r="8"></circle><circle id="year-1803" class="click-icon" cx="2628" cy="-20" r="8"></circle><circle id="year-1809" class="click-icon" cx="2688" cy="-20" r="8"></circle><circle id="year-1815" class="click-icon" cx="2748" cy="-20" r="8"></circle></g><g id="timeline-name" font-size="10"><text x="180" y="106">Livländska kriget</text><text x="700" y="66">Ingermanländska kriget</text><text x="600" y="106">Andra polska kriget</text><text x="1030" y="66">Torstensonska kriget</text><text x="780" y="146">Trettioåriga kriget</text><text x="1130" y="146">Första bremiska kriget</text><text x="1170" y="106">Karl X Gustavs första danska krig</text><text x="1180" y="66">Karl X Gustavs andra danska krig</text><text x="1600" y="106">Stora nordiska kriget</text><text x="2680" y="106">Finska kriget</text><text x="2630" y="146">Napoleonkrigen</text></g></g><g><rect x="-1000" y="45" width="4770" height="20" id="decades-bg"></rect><g font-family="arial,helvetica,sans-serif" text-anchor="middle" font-size="15" id="decades-nb"><text x="0" y="60">1540</text><text x="100" y="60">1550</text><text x="200" y="60">1560</text><text x="300" y="60">1570</text><text x="400" y="60">1580</text><text x="500" y="60">1590</text><text x="600" y="60">1600</text><text x="700" y="60">1610</text><text x="800" y="60">1620</text><text x="900" y="60">1630</text><text x="1000" y="60">1640</text><text x="1100" y="60">1650</text><text x="1200" y="60">1660</text><text x="1300" y="60">1670</text><text x="1400" y="60">1680</text><text x="1500" y="60">1690</text><text x="1600" y="60">1700</text><text x="1700" y="60">1710</text><text x="1800" y="60">1720</text><text x="1900" y="60">1730</text><text x="2000" y="60">1740</text><text x="2100" y="60">1750</text><text x="2200" y="60">1760</text><text x="2300" y="60">1770</text><text x="2400" y="60">1780</text><text x="2500" y="60">1790</text><text x="2600" y="60">1800</text><text x="2700" y="60">1810</text><text x="2800" y="60">1820</text><text x="2900" y="60">1830</text><text x="3000" y="60">1840</text><text x="3100" y="60">1850</text><text x="3200" y="60">1860</text><text x="3300" y="60">1870</text><text x="3400" y="60">1880</text><text x="3500" y="60">1890</text><text x="3600" y="60">1900</text></g></g></g><line id="middle-line" x1="150" x2="150" y1="0" y2="200"></line></svg>
