<svg xmlns="http://www.w3.org/2000/svg" version="1.1" viewBox="0 0 1000 1000" height="297mm" width="210mm"><g transform="translate(754.88 408.02)" opacity="1"><circle r="500" cy="-616.2" cx="-754.3" opacity="1" fill="#ff0" fill-opacity="1"/><path d="M-418.4-1024.6h-4.5c-12 .2-17.7 1.4-37.7 8-55.4 18.3-121 54-133.8 72.4-2.7 4-17.3 27.2-32.4 51.8-30.8 50.3-48.2 76.5-54.6 82.6-6.4 6-8.4 2.8-8-13 .5-26.4 14.7-66.2 30.5-86l7-9-24 12c-52 26-103.4 58-134 83l-15.3 12.8-2 12.3c-1 6.8-3.4 25-5.3 40.2-5.2 42.4-8.6 64-10.4 65.2-4.4 2.7-6-2.6-12.2-43-4.2-26.7-6.7-35.8-9.3-33l-14 17.6c-120.2 153-188 331.6-154 405.7l4 9h.7l23.5-35.5c61.5-93.3 123.8-174.2 202-262C-774-665.7-681-758.2-649-786.5c49.5-43.4 108.2-90 149.3-118.5 15.3-10.6 12.7-8-10.4 10.3-63 50.3-148.3 134-219 214.8-73.6 84.3-152.5 188.2-221.3 291.4-37 55.7-44.5 67.6-43.2 69.7 1.5 2.6 24.7.8 46.7-3.6 54.7-11 119.4-43.2 178-88.8 20.2-15.7 56-47.2 56-49.3 0-2.4-8.4-7.6-25.4-15.7-24.2-11.5-26.8-16.5-12-22.8 7.7-3.2 15.6-5.3 57.6-15.3 33.3-7.8 39-10.5 49.3-22.6 23-27.6 97.4-132.2 97.4-137 0-1.7-17.3-1-44 2-20.8 2.3-27 2.5-28.7 1-4.5-4.6 2-8.7 76.2-48.5 40.3-21.7 34.7-15.2 64.5-74.7 34.4-69 57-126.5 68.7-174 4.5-18.8 6-46.6 3-52.4-2-3.5-2.8-4-12-4zM-732-695c-164 163-267 320.5-374.7 505.8l38.3-19.6c93-183.6 219-322.8 336.4-486.3z" fill="#000"/></g></svg>