<svg xmlns="http://www.w3.org/2000/svg" version="1.1" viewBox="0 0 1000 1000" height="297mm" width="210mm"><g transform="translate(806.623 -797.76)" opacity="1"><circle r="500" cy="589.5" cx="-805.7" opacity="1" fill="#ff0" fill-opacity="1"/><path d="M-1158.8 955l-32.8-32.7 9.3-9.3 9.2-9.2-8-8-8-8 17.4-17.5c9.6-9.6 18-17.5 18.5-17.5.4 0 4.3 3.4 8.4 7.5l7.6 7.5 40.4-40.5 40.5-40.5-15.8-15.8-15.8-15.7 18-18 18-18 18.4 18.4 18.4 18.3 37-40.4c20.3-22 51-55.6 68-74.3l31.2-34-3.3-3c-1.6-1.8-64-59-138.3-127-74.4-68-135.3-123.8-135.3-124 0-.3-8-29.8-18-65.6s-17.8-65.4-17.5-65.7c.5-.6 127.8 34.4 131 36 1.4.8 58.2 62 126.4 136.3 68.3 74.2 124.5 135 125 135.3.4 0 57-61 125.5-136l124.6-136.3 66-18.4c36.3-10.2 66.2-18.2 66.4-18 .3.3-7.7 30.2-17.8 66.4l-18.3 65.8-137.7 126.5c-75.8 69.6-137.6 127-137.5 127.5 0 .4 30.8 34 68.2 74.7l68 73.8 19.2-19.2 19.2-19.3 18 18 18 18-16.5 16.5-16.6 16.5 40.5 40.5 40.4 40.5 8.5-8.5 8.4-8.5 18 18 18 18-8.5 8.5-8.6 8.5 9 9 9 9-32.7 32.8-32.7 33-9-9.2-9-9-8 8-8 8-18-18-18-18 7.7-7.8 7.7-7.7-40.5-40.5-40.6-40.5-15.2 15.2c-8.4 8.4-15.7 15.3-16.3 15.3-.6 0-9-8-18.6-17.5l-17.5-17.5 18.4-18.6 18.5-18.5-2.7-2.3L-768.5 708c-38.6-35.3-39.5-36-41.5-34.4l-76 69.6-73.7 68 19.3 19.3 19.3 19.3-18 18-18 18-16.6-16.5-16.5-16.5-40.6 40.5-40.4 40.5 8.2 8.2 8.2 8.3-18 18-18 18-8.2-8.3-8.3-8.2-9 9c-5 5-9.3 9-9.6 9-.2 0-15.2-14.7-33.2-32.8z" fill="#000"/></g></svg>